<svg width="40" height="31" viewBox="0 0 40 31" fill="none" xmlns="http://www.w3.org/2000/svg">
<path d="M24.3888 28.2359C27.4595 19.5251 21.1247 8.10058 33.4505 4.43133C31.9288 3.71608 30.5185 3.13265 28.9773 2.53952C28.2545 1.83784 30.5771 0.362774 31.1983 0.0371349C32.8762 -0.305949 36.2048 1.8204 37.8163 2.62287C41.5902 4.81318 39.8869 6.05565 37.115 8.01917C35.2105 9.06393 33.4193 10.3704 31.503 11.3337C31.2139 11.3822 31.1201 11.2756 31.2022 10.9964C31.9503 8.75768 34.0307 7.30199 36.0133 6.17388C34.2104 6.72437 30.4931 6.39485 29.4344 8.12772C27.8873 12.5665 28.7937 17.4026 28.4421 22.0081C28.4284 25.7917 26.0785 30.622 21.908 31C19.9547 30.2673 18.9057 24.5861 18.3529 22.5818C17.5481 18.2128 16.6574 13.8051 14.5927 9.82763C12.3463 14.2625 8.27937 18.8021 3.07754 19.4224C1.85669 19.4747 0.926883 18.7343 0.0556799 17.9899C-0.346714 17.0964 1.54024 15.9857 2.23955 15.5554C3.63816 14.7762 4.36091 17.6721 7.04484 16.5575C9.59008 15.5515 11.1469 12.8669 11.9205 10.3742C12.4264 8.93794 11.9908 7.176 12.8932 5.90252C13.6082 5.20472 15.2685 3.2974 16.1222 4.59415C21.3005 11.5644 20.3219 20.8587 24.3927 28.2379L24.3888 28.2359Z" fill="#04251A"/>
</svg>
