<svg width="63" height="50" viewBox="0 0 63 50" fill="none" xmlns="http://www.w3.org/2000/svg">
<path d="M0 15C0 6.71573 6.71573 0 15 0H47.5C55.7843 0 62.5 6.71573 62.5 15V35C62.5 43.2843 55.7843 50 47.5 50H15C6.71573 50 0 43.2843 0 35V15Z" fill="#00FFA9"/>
<path d="M44.711 28.8892L35.6413 37.7814M44.711 28.8892L48.7236 12.4302L27.2313 10L22.1193 26.2381M44.711 28.8892L22.1193 26.2381M44.711 28.8892V30.8223L35.6413 39.6041M35.6413 37.7814L12.5 33.9705M35.6413 37.7814V39.6041M12.5 33.9705L22.1193 26.2381M12.5 33.9705V35.5722L35.6413 39.6041M21.9666 33.7211L29.3048 34.9362M26.7366 32.8106L22.5316 32.1202M26.7366 32.8106L31.3814 33.501M26.7366 32.8106L30.6393 28.9444M22.5316 32.1202L18.3971 31.4851L21.0891 28.9444M22.5316 32.1202L26.2969 28.3332M31.3814 33.501L36.3559 34.3019L39.1734 31.5955M31.3814 33.501L35.5864 29.5777M26.2969 28.3332L22.614 27.8398L21.0891 28.9444M26.2969 28.3332L30.6393 28.9444M30.6393 28.9444L35.5864 29.5777M35.5864 29.5777L40.7533 30.27L39.1734 31.5955M39.1734 31.5955L21.0891 28.9444M46.415 13.7557L42.952 27.0113L24.318 24.6363L28.3307 11.7122L46.415 13.7557Z" stroke="black" stroke-width="0.746879" stroke-linecap="round"/>
</svg>
