<svg width="123" height="23" viewBox="0 0 123 23" fill="none" xmlns="http://www.w3.org/2000/svg">
<path d="M94.1579 3.60589L98.9969 0H82.7969V21.6H98.9969V17.9941H87.4254V12.4792H97.3138V8.87332H87.4254V3.60589H94.1579Z" fill="#ABABAB"/>
<path d="M70.7889 8.41375H65.0398V3.60589H74.2383L79.1969 0H60.2969V21.6H70.1781C75.7115 21.6 78.9094 19.1254 78.9094 14.8124C78.9094 10.6763 76.0349 8.41375 70.7889 8.41375ZM69.9984 17.9941H65.0398V12.0196H69.9984C73.0166 12.0196 74.418 13.0095 74.418 15.0245C74.418 17.0396 72.9089 17.9941 69.9984 17.9941Z" fill="#ABABAB"/>
<path d="M113.221 0H104.396V21.6H109.037V15.4841H113.256C118.881 15.4841 122.396 12.5146 122.396 7.74206C122.396 2.96956 118.881 0 113.221 0ZM113.115 11.8782H109.002V3.60589H113.115C116.104 3.60589 117.721 5.09067 117.721 7.74206C117.721 10.3935 116.104 11.8782 113.115 11.8782Z" fill="#ABABAB"/>
<path d="M51.7273 17.4737C50.4877 18.1554 49.1065 18.5142 47.6899 18.5142C43.4755 18.5142 40.4298 15.4644 40.4298 11.2664C40.4298 7.06841 43.4755 4.01859 47.6899 4.01859C49.2128 3.98271 50.7002 4.48503 51.9398 5.38204L55.3042 2.87042L55.0917 2.65514C53.1439 0.897007 50.5232 0 47.5483 0C44.3255 0 41.3861 1.11229 39.2611 3.12158C37.1362 5.20264 35.9321 8.10894 36.003 11.1229C35.9675 14.1727 37.1362 17.1149 39.2611 19.2677C41.4923 21.3846 44.4672 22.5687 47.5129 22.4969C50.8773 22.4969 53.8168 21.3129 55.8 19.1601L52.7897 16.8996L51.7273 17.4737Z" fill="#ABABAB"/>
<path d="M21.2241 0C22.0802 1.07308 22.7936 2.25 23.4 3.49615L6.92012 15.3L0 11.0769V6.02308L6.88445 10.2115L21.2241 0Z" fill="#ABABAB"/>
</svg>
