<svg width="16" height="16" viewBox="0 0 16 16" fill="none" xmlns="http://www.w3.org/2000/svg">
<g clip-path="url(#clip0_24472_301)">
<path fill-rule="evenodd" clip-rule="evenodd" d="M13.7734 4.38959C14.4987 4.08421 15.2762 4.69749 15.1481 5.47395L13.6355 14.6451C13.4897 15.5294 12.5185 16.0368 11.7072 15.5961C11.0283 15.2274 10.0211 14.6598 9.11341 14.0667C8.66014 13.7705 7.27221 12.8208 7.44281 12.1447C7.58867 11.5666 9.92194 9.39469 11.2553 8.10303C11.779 7.59565 11.5405 7.30253 10.9219 7.76969C9.38754 8.92856 6.92409 10.6905 6.10945 11.1864C5.39069 11.6238 5.01541 11.6985 4.56778 11.6238C3.75036 11.4876 2.99251 11.2767 2.37379 11.0202C1.53755 10.6736 1.57828 9.52436 2.37323 9.18969L13.7734 4.38959Z" fill="#0E0E0E"/>
</g>
<defs>
<clipPath id="clip0_24472_301">
<rect width="16" height="16" fill="white"/>
</clipPath>
</defs>
</svg>
