<svg width="29" height="29" viewBox="0 0 29 29" fill="none" xmlns="http://www.w3.org/2000/svg">
<path d="M20.3013 16.9649C20.4144 16.0318 20.4992 15.0988 20.4992 14.1374C20.4992 13.1761 20.4144 12.243 20.3013 11.3099H25.0798C25.306 12.2147 25.4473 13.1619 25.4473 14.1374C25.4473 15.1129 25.306 16.0601 25.0798 16.9649M17.799 24.8253C18.6472 23.256 19.2976 21.5596 19.75 19.7924H23.9205C22.5508 22.1509 20.3778 23.9375 17.799 24.8253ZM17.4456 16.9649H10.8293C10.6879 16.0318 10.6031 15.0988 10.6031 14.1374C10.6031 13.1761 10.6879 12.2289 10.8293 11.3099H17.4456C17.5728 12.2289 17.6718 13.1761 17.6718 14.1374C17.6718 15.0988 17.5728 16.0318 17.4456 16.9649ZM14.1374 25.3908C12.964 23.6943 12.0168 21.814 11.4372 19.7924H16.8377C16.258 21.814 15.3108 23.6943 14.1374 25.3908ZM8.48245 8.48245H4.35432C5.7099 6.11756 7.88132 4.32815 10.4617 3.44953C9.61344 5.01878 8.97726 6.71527 8.48245 8.48245ZM4.35432 19.7924H8.48245C8.97726 21.5596 9.61344 23.256 10.4617 24.8253C7.88673 23.937 5.71837 22.1501 4.35432 19.7924ZM3.19506 16.9649C2.96886 16.0601 2.82748 15.1129 2.82748 14.1374C2.82748 13.1619 2.96886 12.2147 3.19506 11.3099H7.9735C7.8604 12.243 7.77558 13.1761 7.77558 14.1374C7.77558 15.0988 7.8604 16.0318 7.9735 16.9649M14.1374 2.86989C15.3108 4.56638 16.258 6.4608 16.8377 8.48245H11.4372C12.0168 6.4608 12.964 4.56638 14.1374 2.86989ZM23.9205 8.48245H19.75C19.3075 6.73147 18.6523 5.04125 17.799 3.44953C20.4003 4.34019 22.5633 6.13564 23.9205 8.48245ZM14.1374 0C6.31942 0 0 6.36184 0 14.1374C0 17.8869 1.48947 21.4828 4.14075 24.1341C5.45353 25.4469 7.01203 26.4882 8.72726 27.1987C10.4425 27.9091 12.2809 28.2748 14.1374 28.2748C17.8869 28.2748 21.4828 26.7854 24.1341 24.1341C26.7854 21.4828 28.2748 17.8869 28.2748 14.1374C28.2748 12.2809 27.9091 10.4425 27.1987 8.72726C26.4882 7.01203 25.4469 5.45353 24.1341 4.14075C22.8213 2.82797 21.2628 1.78662 19.5476 1.07615C17.8323 0.365675 15.994 0 14.1374 0Z" fill="#04251A"/>
</svg>
