<svg xmlns="http://www.w3.org/2000/svg"><style>:root svg:not(:target){display:none}</style><svg viewBox="0 0 20 20" fill="none" id="arrow-next"><path d="M7.5 4.16699L13.3333 10.0003L7.5 15.8337" stroke="#0E0E0E" stroke-width="1.42857" stroke-linecap="square" stroke-linejoin="round"></path></svg><svg viewBox="0 0 20 20" fill="none" id="arrow-prev"><path d="M12.5013 15.8337L6.66797 10.0003L12.5013 4.16699" stroke="#0E0E0E" stroke-width="1.42857" stroke-linecap="square" stroke-linejoin="round"></path></svg><svg viewBox="0 0 40 31" fill="none" id="icon-line"><path d="M24.3888 28.2359C27.4595 19.5251 21.1247 8.10058 33.4505 4.43133C31.9288 3.71608 30.5185 3.13265 28.9773 2.53952C28.2545 1.83784 30.5771 0.362774 31.1983 0.0371349C32.8762 -0.305949 36.2048 1.8204 37.8163 2.62287C41.5902 4.81318 39.8869 6.05565 37.115 8.01917C35.2105 9.06393 33.4193 10.3704 31.503 11.3337C31.2139 11.3822 31.1201 11.2756 31.2022 10.9964C31.9503 8.75768 34.0307 7.30199 36.0133 6.17388C34.2104 6.72437 30.4931 6.39485 29.4344 8.12772C27.8873 12.5665 28.7937 17.4026 28.4421 22.0081C28.4284 25.7917 26.0785 30.622 21.908 31C19.9547 30.2673 18.9057 24.5861 18.3529 22.5818C17.5481 18.2128 16.6574 13.8051 14.5927 9.82763C12.3463 14.2625 8.27937 18.8021 3.07754 19.4224C1.85669 19.4747 0.926883 18.7343 0.0556799 17.9899C-0.346714 17.0964 1.54024 15.9857 2.23955 15.5554C3.63816 14.7762 4.36091 17.6721 7.04484 16.5575C9.59008 15.5515 11.1469 12.8669 11.9205 10.3742C12.4264 8.93794 11.9908 7.176 12.8932 5.90252C13.6082 5.20472 15.2685 3.2974 16.1222 4.59415C21.3005 11.5644 20.3219 20.8587 24.3927 28.2379L24.3888 28.2359Z" fill="#04251A"></path></svg><svg viewBox="0 0 20 25" fill="none" id="icon-phone"><path d="M7.07083 2.0474L1.26917 18.5992C0.64902 20.3684 1.96207 22.2201 3.83685 22.2201H11.5373C12.759 22.2201 13.8309 21.4058 14.1585 20.2288L18.7657 3.67702C19.2484 1.94299 17.9444 0.226562 16.1445 0.226562H9.63851C8.48276 0.226562 7.45313 0.956711 7.07083 2.0474Z" stroke="#04251A" stroke-width="0.453474"></path><path fill-rule="evenodd" clip-rule="evenodd" d="M6.99274 2.19913C7.4069 1.01756 8.52233 0.226562 9.77439 0.226562H16.2804C18.2303 0.226562 19.6429 2.08602 19.12 3.96456L14.5128 20.5164C14.1579 21.7914 12.9967 22.6735 11.6732 22.6735H3.97273C1.94172 22.6735 0.519248 20.6676 1.19107 18.7509L6.99274 2.19913ZM7.0301 2.94741C7.44427 1.76583 8.27215 0.4533 9.52421 0.4533H16.7798C18.7298 0.4533 19.6428 3.89992 19.12 5.77845L14.9662 22.3303C14.6113 23.6053 13.4501 24.4874 12.1266 24.4874H3.97268C1.94167 24.4874 0.395637 21.2659 1.06746 19.3492L7.0301 2.94741Z" fill="#04251A"></path><path d="M5.44141 21.0859H9.52267" stroke="#04251A" stroke-width="0.453474" stroke-linecap="round"></path><path d="M14.3356 1.13281H10.937C10.7653 1.13281 10.6083 1.22986 10.5314 1.38349L10.3047 1.83696C10.1539 2.13848 10.3732 2.49324 10.7103 2.49324H14.1845C14.3796 2.49324 14.5529 2.36833 14.6147 2.18316L14.7658 1.72969C14.8637 1.43605 14.6451 1.13281 14.3356 1.13281Z" fill="#04251A"></path><path d="M13.1504 18.8201L17.4584 3.85547" stroke="#04251A" stroke-width="0.453474" stroke-linecap="round"></path><path d="M7.69628 3.9311C7.73805 3.81305 7.67622 3.68349 7.55817 3.64172C7.44012 3.59995 7.31055 3.66178 7.26878 3.77983L7.48253 3.85547L7.69628 3.9311ZM2.26758 18.5934L2.48133 18.669L7.69628 3.9311L7.48253 3.85547L7.26878 3.77983L2.05383 18.5177L2.26758 18.5934Z" fill="#04251A"></path><path d="M11.4471 18.8196H4.08008C4.38239 18.4417 5.66724 17.6859 5.66724 17.6859L7.2544 14.5116L7.6361 15.7839C7.74983 16.163 8.26064 16.2247 8.46132 15.8836L10.202 12.9244V14.5279C10.202 15.0121 10.859 15.1593 11.0656 14.7214L15.8704 4.53516L11.8831 18.4907C11.8275 18.6854 11.6496 18.8196 11.4471 18.8196Z" fill="#04251A"></path><path d="M6.34766 12.0173H11.3359M7.70808 8.84299H12.6963M9.0685 4.76172H14.7369" stroke="#04251A" stroke-width="0.453474" stroke-linecap="round"></path></svg><svg viewBox="0 0 29 29" fill="none" id="icon-planet"><path d="M20.3013 16.9649C20.4144 16.0318 20.4992 15.0988 20.4992 14.1374C20.4992 13.1761 20.4144 12.243 20.3013 11.3099H25.0798C25.306 12.2147 25.4473 13.1619 25.4473 14.1374C25.4473 15.1129 25.306 16.0601 25.0798 16.9649M17.799 24.8253C18.6472 23.256 19.2976 21.5596 19.75 19.7924H23.9205C22.5508 22.1509 20.3778 23.9375 17.799 24.8253ZM17.4456 16.9649H10.8293C10.6879 16.0318 10.6031 15.0988 10.6031 14.1374C10.6031 13.1761 10.6879 12.2289 10.8293 11.3099H17.4456C17.5728 12.2289 17.6718 13.1761 17.6718 14.1374C17.6718 15.0988 17.5728 16.0318 17.4456 16.9649ZM14.1374 25.3908C12.964 23.6943 12.0168 21.814 11.4372 19.7924H16.8377C16.258 21.814 15.3108 23.6943 14.1374 25.3908ZM8.48245 8.48245H4.35432C5.7099 6.11756 7.88132 4.32815 10.4617 3.44953C9.61344 5.01878 8.97726 6.71527 8.48245 8.48245ZM4.35432 19.7924H8.48245C8.97726 21.5596 9.61344 23.256 10.4617 24.8253C7.88673 23.937 5.71837 22.1501 4.35432 19.7924ZM3.19506 16.9649C2.96886 16.0601 2.82748 15.1129 2.82748 14.1374C2.82748 13.1619 2.96886 12.2147 3.19506 11.3099H7.9735C7.8604 12.243 7.77558 13.1761 7.77558 14.1374C7.77558 15.0988 7.8604 16.0318 7.9735 16.9649M14.1374 2.86989C15.3108 4.56638 16.258 6.4608 16.8377 8.48245H11.4372C12.0168 6.4608 12.964 4.56638 14.1374 2.86989ZM23.9205 8.48245H19.75C19.3075 6.73147 18.6523 5.04125 17.799 3.44953C20.4003 4.34019 22.5633 6.13564 23.9205 8.48245ZM14.1374 0C6.31942 0 0 6.36184 0 14.1374C0 17.8869 1.48947 21.4828 4.14075 24.1341C5.45353 25.4469 7.01203 26.4882 8.72726 27.1987C10.4425 27.9091 12.2809 28.2748 14.1374 28.2748C17.8869 28.2748 21.4828 26.7854 24.1341 24.1341C26.7854 21.4828 28.2748 17.8869 28.2748 14.1374C28.2748 12.2809 27.9091 10.4425 27.1987 8.72726C26.4882 7.01203 25.4469 5.45353 24.1341 4.14075C22.8213 2.82797 21.2628 1.78662 19.5476 1.07615C17.8323 0.365675 15.994 0 14.1374 0Z" fill="#04251A"></path></svg><svg viewBox="0 0 20 20" fill="none" id="star"><path d="M9.84766 0L11.8998 4.36184L16.2755 2.33956L15.0438 7L19.6957 8.26352L15.7565 11.0419L18.5079 15L13.7044 14.5963L13.2679 19.3969L9.84766 16L6.42745 19.3969L5.99093 14.5963L1.1874 15L3.93881 11.0419L-0.000421524 8.26352L4.6515 7L3.41978 2.33956L7.79554 4.36184L9.84766 0Z" fill="white"></path></svg><svg viewBox="0 0 14 14" fill="none" id="telegram"><g clip-path="url(#telegram_0)"><path fill-rule="evenodd" clip-rule="evenodd" d="M11.5376 2.58369C12.1722 2.31648 12.8525 2.85311 12.7405 3.53251L11.4169 11.5573C11.2893 12.331 10.4395 12.775 9.72964 12.3894C9.13564 12.0667 8.25434 11.5701 7.46007 11.0512C7.06346 10.792 5.84902 9.96096 5.9983 9.36941C6.12593 8.8636 8.16754 6.96316 9.3342 5.83295C9.79247 5.38899 9.58375 5.13252 9.04254 5.54128C7.69994 6.55529 5.54441 8.09698 4.8316 8.53086C4.2027 8.91365 3.87433 8.97898 3.48265 8.91365C2.7674 8.79447 2.10429 8.60991 1.56291 8.3855C0.831192 8.08216 0.866834 7.07661 1.56241 6.78378L11.5376 2.58369Z" fill="#0E0E0E"></path></g><defs><clipPath id="telegram_0"><rect width="14" height="14" fill="white"></rect></clipPath></defs></svg></svg>