<svg xmlns="http://www.w3.org/2000/svg"><style>:root svg:not(:target){display:none}</style><svg viewBox="0 0 20 20" fill="none" id="star"><path d="M9.84766 0L11.8998 4.36184L16.2755 2.33956L15.0438 7L19.6957 8.26352L15.7565 11.0419L18.5079 15L13.7044 14.5963L13.2679 19.3969L9.84766 16L6.42745 19.3969L5.99093 14.5963L1.1874 15L3.93881 11.0419L-0.000421524 8.26352L4.6515 7L3.41978 2.33956L7.79554 4.36184L9.84766 0Z" fill="white"></path></svg><svg viewBox="0 0 14 14" fill="none" id="telegram"><g clip-path="url(#telegram_0)"><path fill-rule="evenodd" clip-rule="evenodd" d="M11.5376 2.58369C12.1722 2.31648 12.8525 2.85311 12.7405 3.53251L11.4169 11.5573C11.2893 12.331 10.4395 12.775 9.72964 12.3894C9.13564 12.0667 8.25434 11.5701 7.46007 11.0512C7.06346 10.792 5.84902 9.96096 5.9983 9.36941C6.12593 8.8636 8.16754 6.96316 9.3342 5.83295C9.79247 5.38899 9.58375 5.13252 9.04254 5.54128C7.69994 6.55529 5.54441 8.09698 4.8316 8.53086C4.2027 8.91365 3.87433 8.97898 3.48265 8.91365C2.7674 8.79447 2.10429 8.60991 1.56291 8.3855C0.831192 8.08216 0.866834 7.07661 1.56241 6.78378L11.5376 2.58369Z" fill="#0E0E0E"></path></g><defs><clipPath id="telegram_0"><rect width="14" height="14" fill="white"></rect></clipPath></defs></svg></svg>