<svg xmlns="http://www.w3.org/2000/svg"><style>:root svg:not(:target){display:none}</style><svg viewBox="0 0 26 26" fill="none" id="awards-1"><g clip-path="url(#awards-1_0)"><path d="M16.1846 19.9199H13.4854L10.9756 10.5312L10.6172 9.19434L10.2617 10.5322L7.75195 19.9707H5.05371L0.505859 5.78223H3.44629L6.05273 15.7422L6.76855 15.7373L9.23438 5.78223H12.0537L14.5186 15.7373L15.2334 15.7422L17.8408 5.77832L20.7295 5.74023L16.1846 19.9199Z" fill="#0E0E0E" stroke="#0E0E0E" stroke-width="0.738462"></path><path d="M23.3588 15.5059C24.7954 15.5059 25.8476 16.5602 25.8476 17.9957C25.8476 19.428 24.7954 20.4812 23.3588 20.4812C21.9232 20.4812 20.8711 19.428 20.8711 17.9957C20.8722 16.5602 21.9717 15.5059 23.3588 15.5059Z" fill="#0E0E0E"></path><path d="M23.3584 15.875C24.5908 15.875 25.4785 16.7642 25.4785 17.9961C25.4783 19.2241 24.5912 20.1123 23.3584 20.1123C22.127 20.1121 21.2404 19.224 21.2402 17.9961C21.2412 16.7684 22.1714 15.8752 23.3584 15.875Z" stroke="#0E0E0E" stroke-opacity="0.8" stroke-width="0.738462"></path></g><defs><clipPath id="awards-1_0"><rect width="25.8462" height="25.8462" fill="white"></rect></clipPath></defs></svg><svg viewBox="0 0 37 11" fill="none" id="awards-2"><path d="M34.5578 4.72417H32.3479V2.4434C32.3479 2.13925 32.1752 1.87555 31.9325 1.73395C31.8212 1.67327 31.689 1.63281 31.5474 1.63281H24.1372C23.9443 1.63281 23.7623 1.70361 23.62 1.81559C23.5188 1.88639 23.4271 1.97814 23.3563 2.0894L20.8422 6.75208L18.5722 2.30108C18.5318 2.12841 18.4306 1.96658 18.2883 1.85533C18.0549 1.6422 17.7002 1.58152 17.3961 1.72384C17.1425 1.84521 16.9807 2.08868 16.9503 2.35237L14.5785 6.75208L12.2168 2.10963C12.1359 1.92685 11.9835 1.79536 11.8217 1.72456C11.7104 1.67399 11.5883 1.63353 11.4568 1.63353H5.46556C5.32396 1.63353 5.19175 1.66388 5.0805 1.73468C4.82692 1.86616 4.66509 2.13997 4.66509 2.44412V4.72489H2.445C1.99925 4.72489 1.64453 5.07961 1.64453 5.52537C1.64453 5.97112 1.99925 6.32584 2.445 6.32584H4.65497V8.53581C4.65497 8.98156 5.0097 9.33628 5.45545 9.33628C5.9012 9.33628 6.25592 8.98156 6.25592 8.53581V6.32584H10.0777C10.5234 6.32584 10.8781 5.97112 10.8781 5.52537C10.8781 5.07961 10.5234 4.72489 10.0777 4.72489H6.25592V3.24459H10.98L13.8084 8.78939C13.8286 8.83996 13.8489 8.89053 13.8792 8.93099C14.0923 9.28571 14.5381 9.43815 14.9231 9.24525C15.1565 9.13399 15.3183 8.91076 15.3588 8.67741L17.7508 4.24735L20.0619 8.78866C20.0821 8.83923 20.1024 8.88981 20.1327 8.93026C20.3458 9.28499 20.7916 9.43742 21.1766 9.24453C21.41 9.13327 21.5718 8.91004 21.6123 8.67668L24.5418 3.23304H30.7151V4.71333H25.3632C24.9276 4.71333 24.583 5.05794 24.5628 5.48346V8.48379C24.5628 8.92954 24.9175 9.28426 25.3632 9.28426H31.2729C31.3538 9.31461 31.4455 9.28426 31.5366 9.28426C31.9823 9.28426 32.337 8.92954 32.337 8.48379V6.31428H34.547C34.9928 6.31428 35.3475 5.95956 35.3475 5.51381C35.359 5.08901 34.9942 4.72417 34.5578 4.72417ZM30.7368 7.69415H26.155V6.33595H30.7368V7.69415Z" fill="white"></path><path d="M31.5363 1.64213C31.6779 1.64213 31.8101 1.67247 31.9214 1.74327C32.175 1.87475 32.3368 2.14856 32.3368 2.45271V4.73348H34.5468C34.9925 4.73348 35.3472 5.0882 35.3472 5.53396C35.3472 5.97971 34.9925 6.33443 34.5468 6.33443H32.3368V8.50394C32.3368 8.94969 31.9821 9.30441 31.5363 9.30441C31.4453 9.30441 25.3832 9.30441 25.3832 9.30441C24.9375 9.30441 24.5828 8.94969 24.5828 8.50394V5.4935C24.603 5.06798 24.9577 4.72337 25.3832 4.72337H30.7351V3.24307H24.5618L21.6323 8.68672C21.5817 8.93019 21.4293 9.14258 21.1966 9.25456C21.0854 9.30514 20.9633 9.33548 20.852 9.33548C20.5782 9.33548 20.3044 9.19388 20.1628 8.9403C20.1325 8.89984 20.1122 8.84927 20.092 8.7987L17.7809 4.25739L15.4394 8.69756C15.3383 8.93091 15.1859 9.14331 14.9525 9.2654C14.8413 9.31597 14.7192 9.34631 14.6079 9.34631C14.3341 9.34631 14.0603 9.20471 13.9187 8.95113C13.8883 8.91068 13.8681 8.86011 13.8479 8.80954L11.0195 3.26474H6.29541V4.74504H10.1172C10.5629 4.74504 10.9176 5.09976 10.9176 5.54551C10.9176 5.99127 10.5629 6.34599 10.1172 6.34599H6.29541V8.55596C6.29541 9.00171 5.94069 9.35643 5.49494 9.35643C5.04919 9.35643 4.69447 9.00171 4.69447 8.55596V6.34599H2.44404C1.99829 6.34599 1.64357 5.99127 1.64357 5.54551C1.64357 5.09976 1.99829 4.74504 2.44404 4.74504H4.65401V2.46427C4.65401 2.16012 4.82668 1.89643 5.06942 1.75483C5.18068 1.69414 5.31289 1.65369 5.45449 1.65369H11.445C11.5765 1.65369 11.6986 1.68403 11.8099 1.74471C11.9825 1.81551 12.1241 1.94772 12.205 2.12978L14.5768 6.78235L16.9486 2.34218C17.07 2.09871 17.1314 1.8762 17.3944 1.75411C17.5056 1.70353 17.6277 1.67319 17.739 1.67319C17.942 1.67319 18.1342 1.74399 18.2765 1.88631C18.4181 1.99757 18.4896 2.07921 18.5908 2.27138L20.8311 6.78235L23.3452 2.11966C23.4059 2.00841 23.4969 1.91666 23.6089 1.84586C23.7505 1.7346 23.9232 1.66308 24.1262 1.66308H31.5363M26.1541 7.69408H30.7358V6.33587H26.1541V7.69408ZM31.5363 0H24.1262C23.5887 0 23.062 0.18278 22.6358 0.507159C22.3417 0.710167 22.0983 0.983253 21.9263 1.2874L21.9162 1.30763L21.9061 1.32786L20.8824 3.23368C20.8824 3.23368 19.6961 0.902339 19.3414 0.618417C18.8956 0.233352 18.3278 0.0202296 17.7397 0.0202296C17.3749 0.0202296 17.01 0.101143 16.6756 0.263694C16.0369 0.567845 15.6822 1.13569 15.3882 1.79456L14.618 3.23368L13.6752 1.38855C13.4318 0.891501 13.0164 0.486208 12.5092 0.25358C12.1747 0.0910292 11.8099 0.0101153 11.445 0.0101153H5.45449C5.04919 0.0101153 4.6439 0.111258 4.28845 0.304151C3.4981 0.729673 3.01116 1.56121 3.01116 2.45344V3.09208H2.44332C1.09523 3.09208 0 4.18659 0 5.5354C0 6.88421 1.09451 7.97872 2.44332 7.97872H3.01116V8.54657C3.01116 9.89465 4.10567 10.9899 5.45449 10.9899C6.8033 10.9899 7.89781 9.89538 7.89781 8.54657V7.97872H10.0673C10.5333 7.97872 10.9798 7.84724 11.3547 7.61388L12.3177 9.49948C12.3683 9.61073 12.4189 9.7126 12.4803 9.81374C12.926 10.5434 13.7171 10.9899 14.5682 10.9899C14.933 10.9899 15.2978 10.909 15.6323 10.7464C16.2305 10.4625 16.7471 9.97629 17.0108 9.35787L17.7101 7.80678L18.5821 9.50959C18.6327 9.62085 18.6832 9.72271 18.7439 9.82385C19.1897 10.5535 19.9808 11 20.8318 11C21.1966 11 21.5615 10.9191 21.896 10.7565C22.4537 10.4827 22.8893 10.0066 23.1126 9.43879C23.4774 10.331 24.3595 10.9595 25.3832 10.9595H31.5363C32.8844 10.9595 33.9796 9.90549 33.9796 8.5574V7.98956H34.5475C35.8956 7.98956 36.9908 6.89505 36.9908 5.54624C36.9908 4.19815 35.8963 3.10292 34.5475 3.10292H33.9796V2.46427C33.9796 1.56193 33.4934 0.741232 32.7023 0.314988C32.3476 0.101143 31.9416 0 31.5363 0Z" fill="#0E0E0E"></path></svg><svg viewBox="0 0 24 24" fill="none" id="awards-3"><path d="M13.4766 1.9082L6.93457 8.37793L6.66016 8.64844L6.93457 8.91992L13.8604 15.7695L10.8037 18.7588L7.46973 15.499L3.86816 11.9775L0.541016 8.65039L7.35938 1.9082H13.4766Z" fill="#0E0E0E" stroke="#0E0E0E" stroke-width="0.763126"></path><path d="M15.6582 8.92188L19.2598 12.5234L22.585 15.7744L19.2598 19.1006L15.7695 22.5127H9.65137L16.1934 16.043L16.4668 15.7734L9.3418 8.64844L12.3271 5.66309L15.6582 8.92188Z" fill="#0E0E0E" stroke="#0E0E0E" stroke-width="0.763126"></path></svg><svg viewBox="0 0 21 26" fill="none" id="awards-4"><path fill-rule="evenodd" clip-rule="evenodd" d="M7.12499 0L7.36423 0.0292217C7.49881 0.0438325 8.02963 0.0803597 8.5455 0.0949705C9.39781 0.131498 9.53238 0.160719 10.5641 0.613656L10.4744 1.19809L10.9678 1.43917C11.4538 1.66564 11.4613 1.68025 11.4613 1.96516C11.4613 2.12588 11.4164 2.64456 11.3566 3.11942C11.2968 3.58696 11.1921 4.449 11.1249 5.03344C11.0576 5.61787 10.9978 6.15847 10.9903 6.24614C10.9753 6.38494 11.0202 6.40686 11.551 6.45069C11.9996 6.48722 12.2388 6.54566 12.5977 6.72829C13.0612 6.96937 13.0687 6.96937 13.0239 7.55381L14.1079 7.60495C15.1322 7.66339 15.2294 7.678 16.1864 8.13824L16.134 8.74459L16.6948 8.77381C17.1433 8.80303 17.3527 8.86148 18.2498 9.30711L18.1751 9.89154L18.6685 10.1253C19.162 10.3664 19.162 10.3664 19.162 10.6732C19.162 10.9874 19.162 10.9874 20.1339 11.4622L20.089 11.9517C20.0666 12.2293 20.0068 12.8429 19.947 13.3251C19.8872 13.8072 19.79 14.6255 19.7302 15.1514C19.6704 15.6774 19.5433 16.7367 19.2741 18.9137H18.7283C18.347 18.9137 18.19 18.943 18.19 19.0014C18.19 19.0525 18.1227 19.637 18.0405 20.3018C17.9583 20.9666 17.8835 21.6094 17.8536 21.9455L16.8069 21.8944L16.7097 22.508C16.6649 22.8368 16.5677 23.56 16.5078 24.1006C16.4406 24.6412 16.3658 25.2914 16.2836 26H15.9621C15.7901 26 15.0873 25.9708 14.392 25.9269C13.7042 25.8904 12.1641 25.8028 10.9753 25.7443C9.78658 25.6859 8.20159 25.5982 7.46143 25.5617C6.72127 25.5178 5.90634 25.474 5.64467 25.4521C5.33066 25.4302 5.0316 25.3425 4.7176 25.1891C4.45592 25.0649 4.23911 24.9553 4.22415 24.948C4.21668 24.948 4.26901 24.349 4.35125 23.6257C4.43349 22.9025 4.4933 22.3035 4.48583 22.3035C4.47835 22.2962 4.26154 22.1866 4.00734 22.0624C3.74567 21.9382 3.52137 21.814 3.5139 21.7775C3.49895 21.7482 3.52137 21.3976 3.57371 20.9958C3.61857 20.594 3.64847 20.2433 3.63352 20.2068C3.61857 20.1776 3.40175 20.0534 3.14756 19.9292C2.88588 19.805 2.66907 19.6954 2.66159 19.6881C2.65411 19.6881 2.68402 19.3228 2.73635 18.8845C2.82607 18.1174 2.8186 18.0882 2.67654 18.0006C2.5943 17.9421 2.36254 17.8252 2.16815 17.7303C1.80928 17.5622 1.80181 17.5622 1.84667 17.27C1.86909 17.1093 1.90648 16.744 1.98124 15.955L1.4878 15.714C1.00183 15.4875 0.994359 15.4729 0.979406 15.1661C0.956977 14.8665 0.942024 14.8519 0 14.3479L0.0448583 13.9461C0.0747638 13.7269 0.142051 13.084 0.209339 12.5215C0.26915 11.959 0.343913 11.3818 0.411201 10.9874L1.16632 11.0458C1.58499 11.075 2.19806 11.1189 2.52702 11.1408C2.85598 11.1554 3.32699 11.1919 3.57371 11.2138C3.82043 11.2357 4.14939 11.3161 4.30639 11.3965C4.45592 11.4695 4.59797 11.528 4.6204 11.5133C4.64283 11.506 4.73255 10.9581 4.80731 10.2933C4.88955 9.62855 5.00917 8.65693 5.06899 8.13824C5.1288 7.61225 5.30075 6.17308 5.4428 4.92386C5.58486 3.67463 5.74186 2.34504 5.77924 1.96516C5.8241 1.58528 5.86896 1.20539 5.89139 1.12504C5.92129 0.993538 5.97363 0.978927 7.01284 1.03006L7.12499 0ZM8.14178 2.57881C8.11187 2.81989 8.02963 3.57966 7.94739 4.25906C7.86515 4.94577 7.71562 6.22422 7.61843 7.10818C7.51376 7.99213 7.36423 9.2925 7.27452 9.99382C7.19228 10.6951 7.09508 11.5718 7.05023 11.9298C7.01284 12.295 6.9306 13.0329 6.86332 13.5735C6.80351 14.1141 6.68388 15.1149 6.60164 15.787C6.5194 16.4591 6.45212 17.0655 6.45212 17.1385C6.45959 17.2554 6.39978 17.2554 5.76429 17.2043C5.27085 17.1604 4.97179 17.0947 4.7176 16.9632C4.52321 16.8682 4.34378 16.7879 4.32135 16.7879C4.30639 16.7879 4.27649 16.934 4.26901 17.1093L4.24658 17.438L5.27085 17.9202C5.20356 18.3731 5.16618 18.7384 5.13627 19.016L5.08394 19.5274L6.11568 20.0096C6.03344 20.7693 5.98858 21.1346 5.95867 21.3172L5.91382 21.646C6.94556 22.1062 6.97546 22.1354 6.93808 22.3254C6.91565 22.435 6.87079 22.7929 6.84089 23.1217L6.78855 23.728C7.25209 23.7792 8.11187 23.8303 8.99409 23.8741C9.88377 23.918 10.9604 23.9691 11.3865 23.991C11.8202 24.0129 12.5977 24.0568 13.1061 24.086C13.622 24.1225 14.0481 24.1444 14.0631 24.1371C14.0705 24.1371 14.1304 23.7207 14.1902 23.2166C14.25 22.7126 14.3247 22.077 14.3472 21.7921C14.3696 21.5145 14.4219 21.2296 14.4593 21.1711C14.5042 21.0908 14.6388 21.0688 15.0126 21.0835C15.4238 21.0981 15.506 21.0761 15.5359 20.9739C15.5509 20.9008 15.6032 20.4844 15.6481 20.0388C15.7004 19.6004 15.7677 19.0014 15.8051 18.7092C15.8424 18.417 15.8724 18.1467 15.8724 18.1028C15.8724 18.059 16.0966 18.0371 16.4256 18.0517L16.9789 18.0663C17.1134 16.7659 17.2779 15.3122 17.4349 14.0045L17.7041 11.6156L16.6948 11.1262L16.7695 10.5052C15.7901 10.5052 15.663 10.476 15.1995 10.2349C14.6911 9.9646 14.6761 9.94999 14.6761 9.68699C14.6761 9.46052 14.6462 9.40208 14.5117 9.37286C14.4219 9.35825 14.2425 9.33633 14.1154 9.33633H13.8911C13.6818 11.2357 13.5995 11.9298 13.5696 12.1051L13.5173 12.4265C12.2463 12.3608 12.1192 12.3242 11.6706 12.0905C11.2893 11.8859 11.1697 11.791 11.1996 11.696C11.2146 11.6229 11.252 11.3526 11.2744 11.0896C11.3043 10.8266 11.394 10.0888 11.4688 9.44591C11.551 8.80303 11.6108 8.25513 11.6108 8.22591C11.6108 8.19668 11.4239 8.17477 11.1847 8.18938L10.751 8.20399C10.3847 11.3161 10.28 12.2293 10.2725 12.2439C10.2725 12.2512 9.97349 12.2366 9.61462 12.2147C9.07633 12.1781 8.86699 12.127 8.45579 11.9225C8.17916 11.7836 7.94739 11.6595 7.94739 11.6375C7.94739 11.6156 8.1343 9.9646 8.36607 7.97022C8.59784 5.96853 8.84456 3.79151 8.91932 3.12672C9.03147 2.21354 9.03894 1.90672 8.97166 1.87019C8.9268 1.84097 8.73989 1.81174 8.56793 1.81174C8.29878 1.81174 8.24645 1.84097 8.21654 1.97977C8.20159 2.06743 8.16421 2.33774 8.14178 2.57881ZM2.51206 13.5589C2.46721 13.9095 2.45225 14.2017 2.48216 14.2164C2.50459 14.231 2.72888 14.3405 2.9756 14.472C3.41671 14.7058 3.42418 14.7131 3.40923 14.998C3.40175 15.2829 3.40923 15.2976 3.80548 15.4948L4.2092 15.692C4.26901 15.2099 4.30639 14.8227 4.34378 14.5159L4.39611 13.9534C3.40175 13.4712 3.3868 13.4566 3.3868 13.1936V12.916H2.58683L2.51206 13.5589Z" fill="#141414"></path></svg><svg viewBox="0 0 30 30" fill="none" id="awards-5"><path fill-rule="evenodd" clip-rule="evenodd" d="M11.7144 1.72677C11.9204 1.59628 12.0572 1.3663 12.0572 1.10436C12.0572 0.69777 11.7276 0.368164 11.321 0.368164C10.9144 0.368164 10.5848 0.69777 10.5848 1.10436C10.5848 1.50723 10.9084 1.83451 11.3099 1.84047C11.122 1.92397 10.9618 2.0467 10.8293 2.20865C10.4423 3.01068 10.6417 3.60884 11.4275 4.00313C11.1232 4.25881 10.9237 4.58089 10.8293 4.96939C10.6294 5.78843 10.8134 6.49394 11.3815 7.08596L11.4735 9.01847C11.5877 10.4047 12.0632 11.6471 12.8999 12.7455C12.3626 12.8874 11.8411 13.0714 11.3355 13.2976C9.26414 14.556 7.7304 16.2891 6.73423 18.497C5.62432 18.8146 5.04149 19.5508 4.98576 20.7056C3.80948 20.3771 3.25733 20.8372 3.32932 22.086C3.53978 22.586 3.92322 22.8621 4.47963 22.9142C5.01991 22.8229 5.34199 22.5162 5.44589 21.9939C5.7295 22.1068 6.00557 22.2449 6.27411 22.408L6.96429 22.5461C8.50018 22.3274 9.17503 21.4378 8.98883 19.8774C9.28231 19.3951 9.55837 18.9042 9.81705 18.405C10.6023 17.3131 11.5686 16.4082 12.7158 15.6902C13.6709 15.2854 14.3303 15.5769 14.6944 16.5645C15.0689 18.5586 14.8696 20.4911 14.0962 22.362C13.7875 22.594 13.5267 22.8701 13.314 23.1903C12.8626 24.7641 13.43 25.761 15.0164 26.181C14.649 27.2859 15.0478 27.8994 16.2128 28.0215C16.2013 28.0347 16.1905 28.0473 16.1805 28.0591C16.022 28.1942 15.9215 28.3952 15.9215 28.6197C15.9215 29.0263 16.2511 29.3559 16.6577 29.3559C17.0643 29.3559 17.3939 29.0263 17.3939 28.6197C17.3939 28.3092 17.2017 28.0436 16.9298 27.9354C16.9359 27.9306 16.939 27.9276 16.9385 27.9255C16.9377 27.9223 16.9286 27.921 16.9086 27.9183L16.9086 27.9183C16.8953 27.9165 16.8773 27.914 16.8537 27.9099C16.825 27.902 16.7956 27.8957 16.7656 27.8913C16.7166 27.8795 16.6556 27.8625 16.5809 27.8375C16.7689 27.6708 16.9069 27.4714 16.995 27.2393C17.1486 26.5676 16.9492 26.046 16.3968 25.6749C16.5525 25.5038 16.6905 25.3198 16.8109 25.1228C17.0007 24.3975 16.9853 23.6766 16.7649 22.9602C17.0701 21.9211 17.3001 20.8629 17.4551 19.7853C17.7198 17.9537 17.459 16.2052 16.6729 14.5399C18.6139 14.1679 20.2397 13.2476 21.5502 11.7792C22.9753 11.7124 23.7729 10.9762 23.9428 9.57062C24.108 9.64103 24.2767 9.70238 24.449 9.75467C25.3722 9.53379 25.7397 8.97972 25.5513 8.09246C25.6819 8.21047 25.8549 8.28233 26.0448 8.28233C26.4514 8.28233 26.781 7.95272 26.781 7.54613C26.781 7.13954 26.4514 6.80994 26.0448 6.80994C25.6382 6.80994 25.3086 7.13954 25.3086 7.54613C25.3086 7.62621 25.3214 7.70331 25.345 7.77548C25.222 7.67634 25.0921 7.58453 24.9551 7.50007C24.1491 7.23637 23.6124 7.49711 23.3447 8.28227C23.1663 8.04247 22.9363 7.87376 22.6545 7.77614C20.8888 7.48635 19.9839 8.23787 19.9398 10.0307C19.2175 10.7985 18.3739 11.3967 17.4091 11.8252C16.6426 12.1554 15.9064 12.0941 15.2005 11.6412C14.3396 10.8423 13.8641 9.8454 13.7741 8.65037C13.5919 7.88189 13.7759 7.23771 14.3263 6.71786C14.9986 5.01702 14.4618 3.9434 12.7158 3.497C13.0479 2.47348 12.7141 1.8834 11.7144 1.72677ZM17.2936 6.92778C16.7406 6.75664 16.1228 6.78193 15.6242 7.07591C15.1308 7.36682 14.7726 7.81494 14.5499 8.42026C14.3507 9.20377 14.4465 9.89044 14.8372 10.4802C15.1126 10.8959 15.5515 11.1801 16.0306 11.3182C17.019 11.6031 17.8171 11.3498 18.4249 10.5583C18.781 10.0945 18.9481 9.50179 18.8978 8.91925C18.8095 7.89527 18.2747 7.23145 17.2936 6.92778ZM2.66979 23.1902C3.07638 23.1902 3.40599 22.8606 3.40599 22.454C3.40599 22.0474 3.07638 21.7178 2.66979 21.7178C2.2632 21.7178 1.93359 22.0474 1.93359 22.454C1.93359 22.8606 2.2632 23.1902 2.66979 23.1902Z" fill="#191919"></path></svg><svg viewBox="0 0 20 20" fill="none" id="star"><path d="M9.84766 0L11.8998 4.36184L16.2755 2.33956L15.0438 7L19.6957 8.26352L15.7565 11.0419L18.5079 15L13.7044 14.5963L13.2679 19.3969L9.84766 16L6.42745 19.3969L5.99093 14.5963L1.1874 15L3.93881 11.0419L-0.000421524 8.26352L4.6515 7L3.41978 2.33956L7.79554 4.36184L9.84766 0Z" fill="white"></path></svg><svg viewBox="0 0 14 14" fill="none" id="telegram"><g clip-path="url(#telegram_0)"><path fill-rule="evenodd" clip-rule="evenodd" d="M11.5376 2.58369C12.1722 2.31648 12.8525 2.85311 12.7405 3.53251L11.4169 11.5573C11.2893 12.331 10.4395 12.775 9.72964 12.3894C9.13564 12.0667 8.25434 11.5701 7.46007 11.0512C7.06346 10.792 5.84902 9.96096 5.9983 9.36941C6.12593 8.8636 8.16754 6.96316 9.3342 5.83295C9.79247 5.38899 9.58375 5.13252 9.04254 5.54128C7.69994 6.55529 5.54441 8.09698 4.8316 8.53086C4.2027 8.91365 3.87433 8.97898 3.48265 8.91365C2.7674 8.79447 2.10429 8.60991 1.56291 8.3855C0.831192 8.08216 0.866834 7.07661 1.56241 6.78378L11.5376 2.58369Z" fill="#0E0E0E"></path></g><defs><clipPath id="telegram_0"><rect width="14" height="14" fill="white"></rect></clipPath></defs></svg></svg>